<svg width="151" height="46" viewBox="0 0 151 46" fill="none" xmlns="http://www.w3.org/2000/svg">
<path d="M17.32 24.5H7.57L5.71 29H0.73L10.09 8H14.89L24.28 29H19.18L17.32 24.5ZM15.79 20.81L12.46 12.77L9.13 20.81H15.79ZM35.6688 12.62C37.1688 12.62 38.5288 12.97 39.7488 13.67C40.9888 14.35 41.9588 15.32 42.6588 16.58C43.3588 17.82 43.7088 19.27 43.7088 20.93C43.7088 22.59 43.3588 24.05 42.6588 25.31C41.9588 26.55 40.9888 27.52 39.7488 28.22C38.5288 28.9 37.1688 29.24 35.6688 29.24C33.4488 29.24 31.7588 28.54 30.5988 27.14V29H26.1288V6.74H30.8088V14.57C31.9888 13.27 33.6088 12.62 35.6688 12.62ZM34.8588 25.4C36.0588 25.4 37.0388 25 37.7988 24.2C38.5788 23.38 38.9688 22.29 38.9688 20.93C38.9688 19.57 38.5788 18.49 37.7988 17.69C37.0388 16.87 36.0588 16.46 34.8588 16.46C33.6588 16.46 32.6688 16.87 31.8887 17.69C31.1288 18.49 30.7488 19.57 30.7488 20.93C30.7488 22.29 31.1288 23.38 31.8887 24.2C32.6688 25 33.6588 25.4 34.8588 25.4ZM54.5216 29.24C52.8216 29.24 51.2916 28.89 49.9316 28.19C48.5916 27.47 47.5416 26.48 46.7816 25.22C46.0216 23.96 45.6416 22.53 45.6416 20.93C45.6416 19.33 46.0216 17.9 46.7816 16.64C47.5416 15.38 48.5916 14.4 49.9316 13.7C51.2916 12.98 52.8216 12.62 54.5216 12.62C56.2216 12.62 57.7416 12.98 59.0816 13.7C60.4216 14.4 61.4716 15.38 62.2316 16.64C62.9916 17.9 63.3716 19.33 63.3716 20.93C63.3716 22.53 62.9916 23.96 62.2316 25.22C61.4716 26.48 60.4216 27.47 59.0816 28.19C57.7416 28.89 56.2216 29.24 54.5216 29.24ZM54.5216 25.4C55.7216 25.4 56.7016 25 57.4616 24.2C58.2416 23.38 58.6316 22.29 58.6316 20.93C58.6316 19.57 58.2416 18.49 57.4616 17.69C56.7016 16.87 55.7216 16.46 54.5216 16.46C53.3216 16.46 52.3316 16.87 51.5516 17.69C50.7716 18.49 50.3816 19.57 50.3816 20.93C50.3816 22.29 50.7716 23.38 51.5516 24.2C52.3316 25 53.3216 25.4 54.5216 25.4ZM82.7598 12.86V29H78.3198V27.08C77.6998 27.78 76.9598 28.32 76.0998 28.7C75.2398 29.06 74.3098 29.24 73.3098 29.24C71.1898 29.24 69.5098 28.63 68.2698 27.41C67.0298 26.19 66.4098 24.38 66.4098 21.98V12.86H71.0898V21.29C71.0898 23.89 72.1798 25.19 74.3598 25.19C75.4798 25.19 76.3798 24.83 77.0598 24.11C77.7398 23.37 78.0798 22.28 78.0798 20.84V12.86H82.7598ZM97.5055 28.22C97.0455 28.56 96.4755 28.82 95.7955 29C95.1355 29.16 94.4355 29.24 93.6955 29.24C91.7755 29.24 90.2855 28.75 89.2255 27.77C88.1855 26.79 87.6655 25.35 87.6655 23.45V16.82H85.1755V13.22H87.6655V9.29H92.3455V13.22H96.3655V16.82H92.3455V23.39C92.3455 24.07 92.5155 24.6 92.8555 24.98C93.2155 25.34 93.7155 25.52 94.3555 25.52C95.0955 25.52 95.7255 25.32 96.2455 24.92L97.5055 28.22ZM118.289 29.36C115.289 29.36 112.949 28.53 111.269 26.87C109.609 25.21 108.779 22.84 108.779 19.76V8H113.639V19.58C113.639 23.34 115.199 25.22 118.319 25.22C119.839 25.22 120.999 24.77 121.799 23.87C122.599 22.95 122.999 21.52 122.999 19.58V8H127.799V19.76C127.799 22.84 126.959 25.21 125.279 26.87C123.619 28.53 121.289 29.36 118.289 29.36ZM137.701 29.24C136.361 29.24 135.051 29.08 133.771 28.76C132.491 28.42 131.471 28 130.711 27.5L132.271 24.14C132.991 24.6 133.861 24.98 134.881 25.28C135.901 25.56 136.901 25.7 137.881 25.7C139.861 25.7 140.851 25.21 140.851 24.23C140.851 23.77 140.581 23.44 140.041 23.24C139.501 23.04 138.671 22.87 137.551 22.73C136.231 22.53 135.141 22.3 134.281 22.04C133.421 21.78 132.671 21.32 132.031 20.66C131.411 20 131.101 19.06 131.101 17.84C131.101 16.82 131.391 15.92 131.971 15.14C132.571 14.34 133.431 13.72 134.551 13.28C135.691 12.84 137.031 12.62 138.571 12.62C139.711 12.62 140.841 12.75 141.961 13.01C143.101 13.25 144.041 13.59 144.781 14.03L143.221 17.36C141.801 16.56 140.251 16.16 138.571 16.16C137.571 16.16 136.821 16.3 136.321 16.58C135.821 16.86 135.571 17.22 135.571 17.66C135.571 18.16 135.841 18.51 136.381 18.71C136.921 18.91 137.781 19.1 138.961 19.28C140.281 19.5 141.361 19.74 142.201 20C143.041 20.24 143.771 20.69 144.391 21.35C145.011 22.01 145.321 22.93 145.321 24.11C145.321 25.11 145.021 26 144.421 26.78C143.821 27.56 142.941 28.17 141.781 28.61C140.641 29.03 139.281 29.24 137.701 29.24Z" fill="white"/>
<path d="M5 46L151 37V46H5Z" fill="#FCE82F"/>
</svg>
