<svg width="198" height="46" viewBox="0 0 198 46" fill="none" xmlns="http://www.w3.org/2000/svg">
<path d="M16.68 18.17H21.12V26.69C19.98 27.55 18.66 28.21 17.16 28.67C15.66 29.13 14.15 29.36 12.63 29.36C10.45 29.36 8.49 28.9 6.75 27.98C5.01 27.04 3.64 25.75 2.64 24.11C1.66 22.45 1.17 20.58 1.17 18.5C1.17 16.42 1.66 14.56 2.64 12.92C3.64 11.26 5.02 9.97 6.78 9.05C8.54 8.11 10.52 7.64 12.72 7.64C14.56 7.64 16.23 7.95 17.73 8.57C19.23 9.19 20.49 10.09 21.51 11.27L18.39 14.15C16.89 12.57 15.08 11.78 12.96 11.78C11.62 11.78 10.43 12.06 9.39 12.62C8.35 13.18 7.54 13.97 6.96 14.99C6.38 16.01 6.09 17.18 6.09 18.5C6.09 19.8 6.38 20.96 6.96 21.98C7.54 23 8.34 23.8 9.36 24.38C10.4 24.94 11.58 25.22 12.9 25.22C14.3 25.22 15.56 24.92 16.68 24.32V18.17ZM41.1145 20.99C41.1145 21.05 41.0845 21.47 41.0245 22.25H28.8145C29.0345 23.25 29.5545 24.04 30.3745 24.62C31.1945 25.2 32.2145 25.49 33.4345 25.49C34.2745 25.49 35.0145 25.37 35.6545 25.13C36.3145 24.87 36.9245 24.47 37.4845 23.93L39.9745 26.63C38.4545 28.37 36.2345 29.24 33.3145 29.24C31.4945 29.24 29.8845 28.89 28.4845 28.19C27.0845 27.47 26.0045 26.48 25.2445 25.22C24.4845 23.96 24.1045 22.53 24.1045 20.93C24.1045 19.35 24.4745 17.93 25.2145 16.67C25.9745 15.39 27.0045 14.4 28.3045 13.7C29.6245 12.98 31.0945 12.62 32.7145 12.62C34.2945 12.62 35.7245 12.96 37.0045 13.64C38.2845 14.32 39.2845 15.3 40.0045 16.58C40.7445 17.84 41.1145 19.31 41.1145 20.99ZM32.7445 16.16C31.6845 16.16 30.7945 16.46 30.0745 17.06C29.3545 17.66 28.9145 18.48 28.7545 19.52H36.7045C36.5445 18.5 36.1045 17.69 35.3845 17.09C34.6645 16.47 33.7845 16.16 32.7445 16.16ZM54.6403 28.22C54.1803 28.56 53.6103 28.82 52.9303 29C52.2703 29.16 51.5703 29.24 50.8303 29.24C48.9103 29.24 47.4203 28.75 46.3603 27.77C45.3203 26.79 44.8003 25.35 44.8003 23.45V16.82H42.3103V13.22H44.8003V9.29H49.4803V13.22H53.5003V16.82H49.4803V23.39C49.4803 24.07 49.6503 24.6 49.9903 24.98C50.3503 25.34 50.8503 25.52 51.4903 25.52C52.2303 25.52 52.8603 25.32 53.3803 24.92L54.6403 28.22ZM65.7635 12.86H70.4435V29H65.7635V12.86ZM68.1035 10.61C67.2435 10.61 66.5435 10.36 66.0035 9.86C65.4635 9.36 65.1935 8.74 65.1935 8C65.1935 7.26 65.4635 6.64 66.0035 6.14C66.5435 5.64 67.2435 5.39 68.1035 5.39C68.9635 5.39 69.6635 5.63 70.2035 6.11C70.7435 6.59 71.0135 7.19 71.0135 7.91C71.0135 8.69 70.7435 9.34 70.2035 9.86C69.6635 10.36 68.9635 10.61 68.1035 10.61ZM84.597 12.62C86.597 12.62 88.207 13.22 89.427 14.42C90.667 15.62 91.287 17.4 91.287 19.76V29H86.607V20.48C86.607 19.2 86.327 18.25 85.767 17.63C85.207 16.99 84.397 16.67 83.337 16.67C82.157 16.67 81.217 17.04 80.517 17.78C79.817 18.5 79.467 19.58 79.467 21.02V29H74.787V12.86H79.257V14.75C79.877 14.07 80.647 13.55 81.567 13.19C82.487 12.81 83.497 12.62 84.597 12.62ZM108.705 11.96H101.985V8H120.285V11.96H113.565V29H108.705V11.96ZM128.61 29.24C126.91 29.24 125.38 28.89 124.02 28.19C122.68 27.47 121.63 26.48 120.87 25.22C120.11 23.96 119.73 22.53 119.73 20.93C119.73 19.33 120.11 17.9 120.87 16.64C121.63 15.38 122.68 14.4 124.02 13.7C125.38 12.98 126.91 12.62 128.61 12.62C130.31 12.62 131.83 12.98 133.17 13.7C134.51 14.4 135.56 15.38 136.32 16.64C137.08 17.9 137.46 19.33 137.46 20.93C137.46 22.53 137.08 23.96 136.32 25.22C135.56 26.48 134.51 27.47 133.17 28.19C131.83 28.89 130.31 29.24 128.61 29.24ZM128.61 25.4C129.81 25.4 130.79 25 131.55 24.2C132.33 23.38 132.72 22.29 132.72 20.93C132.72 19.57 132.33 18.49 131.55 17.69C130.79 16.87 129.81 16.46 128.61 16.46C127.41 16.46 126.42 16.87 125.64 17.69C124.86 18.49 124.47 19.57 124.47 20.93C124.47 22.29 124.86 23.38 125.64 24.2C126.42 25 127.41 25.4 128.61 25.4ZM156.848 12.86V29H152.408V27.08C151.788 27.78 151.048 28.32 150.188 28.7C149.328 29.06 148.398 29.24 147.398 29.24C145.278 29.24 143.598 28.63 142.358 27.41C141.118 26.19 140.498 24.38 140.498 21.98V12.86H145.178V21.29C145.178 23.89 146.268 25.19 148.448 25.19C149.568 25.19 150.468 24.83 151.148 24.11C151.828 23.37 152.168 22.28 152.168 20.84V12.86H156.848ZM168.983 29.24C167.263 29.24 165.713 28.89 164.333 28.19C162.973 27.47 161.903 26.48 161.123 25.22C160.363 23.96 159.983 22.53 159.983 20.93C159.983 19.33 160.363 17.9 161.123 16.64C161.903 15.38 162.973 14.4 164.333 13.7C165.713 12.98 167.263 12.62 168.983 12.62C170.683 12.62 172.163 12.98 173.423 13.7C174.703 14.4 175.633 15.41 176.213 16.73L172.583 18.68C171.743 17.2 170.533 16.46 168.953 16.46C167.733 16.46 166.723 16.86 165.923 17.66C165.123 18.46 164.723 19.55 164.723 20.93C164.723 22.31 165.123 23.4 165.923 24.2C166.723 25 167.733 25.4 168.953 25.4C170.553 25.4 171.763 24.66 172.583 23.18L176.213 25.16C175.633 26.44 174.703 27.44 173.423 28.16C172.163 28.88 170.683 29.24 168.983 29.24ZM188.601 12.62C190.601 12.62 192.211 13.22 193.431 14.42C194.671 15.62 195.291 17.4 195.291 19.76V29H190.611V20.48C190.611 19.2 190.331 18.25 189.771 17.63C189.211 16.99 188.401 16.67 187.341 16.67C186.161 16.67 185.221 17.04 184.521 17.78C183.821 18.5 183.471 19.58 183.471 21.02V29H178.791V6.74H183.471V14.54C184.091 13.92 184.841 13.45 185.721 13.13C186.601 12.79 187.561 12.62 188.601 12.62Z" fill="white"/>
<path d="M27 46L173 37V46H27Z" fill="#FCE82F"/>
</svg>
