<svg width="154" height="46" viewBox="0 0 154 46" fill="none" xmlns="http://www.w3.org/2000/svg">
<path d="M11.58 8C13.44 8 15.05 8.31 16.41 8.93C17.79 9.55 18.85 10.43 19.59 11.57C20.33 12.71 20.7 14.06 20.7 15.62C20.7 17.16 20.33 18.51 19.59 19.67C18.85 20.81 17.79 21.69 16.41 22.31C15.05 22.91 13.44 23.21 11.58 23.21H7.35V29H2.49V8H11.58ZM11.31 19.25C12.77 19.25 13.88 18.94 14.64 18.32C15.4 17.68 15.78 16.78 15.78 15.62C15.78 14.44 15.4 13.54 14.64 12.92C13.88 12.28 12.77 11.96 11.31 11.96H7.35V19.25H11.31ZM31.4904 29.24C29.7904 29.24 28.2604 28.89 26.9004 28.19C25.5604 27.47 24.5104 26.48 23.7504 25.22C22.9904 23.96 22.6104 22.53 22.6104 20.93C22.6104 19.33 22.9904 17.9 23.7504 16.64C24.5104 15.38 25.5604 14.4 26.9004 13.7C28.2604 12.98 29.7904 12.62 31.4904 12.62C33.1904 12.62 34.7104 12.98 36.0504 13.7C37.3904 14.4 38.4404 15.38 39.2004 16.64C39.9604 17.9 40.3404 19.33 40.3404 20.93C40.3404 22.53 39.9604 23.96 39.2004 25.22C38.4404 26.48 37.3904 27.47 36.0504 28.19C34.7104 28.89 33.1904 29.24 31.4904 29.24ZM31.4904 25.4C32.6904 25.4 33.6704 25 34.4304 24.2C35.2104 23.38 35.6004 22.29 35.6004 20.93C35.6004 19.57 35.2104 18.49 34.4304 17.69C33.6704 16.87 32.6904 16.46 31.4904 16.46C30.2904 16.46 29.3004 16.87 28.5204 17.69C27.7404 18.49 27.3504 19.57 27.3504 20.93C27.3504 22.29 27.7404 23.38 28.5204 24.2C29.3004 25 30.2904 25.4 31.4904 25.4ZM47.9386 14.99C48.4986 14.21 49.2486 13.62 50.1886 13.22C51.1486 12.82 52.2486 12.62 53.4886 12.62V16.94C52.9686 16.9 52.6186 16.88 52.4386 16.88C51.0986 16.88 50.0486 17.26 49.2886 18.02C48.5286 18.76 48.1486 19.88 48.1486 21.38V29H43.4686V12.86H47.9386V14.99ZM67.238 28.22C66.778 28.56 66.208 28.82 65.528 29C64.868 29.16 64.168 29.24 63.428 29.24C61.508 29.24 60.018 28.75 58.958 27.77C57.918 26.79 57.398 25.35 57.398 23.45V16.82H54.908V13.22H57.398V9.29H62.078V13.22H66.098V16.82H62.078V23.39C62.078 24.07 62.248 24.6 62.588 24.98C62.948 25.34 63.448 25.52 64.088 25.52C64.828 25.52 65.458 25.32 65.978 24.92L67.238 28.22ZM74.9951 13.22H79.1351V16.82H75.1151V29H70.4351V16.82H67.9451V13.22H70.4351V12.5C70.4351 10.66 70.9751 9.2 72.0551 8.12C73.1551 7.04 74.6951 6.5 76.6751 6.5C77.3751 6.5 78.0351 6.58 78.6551 6.74C79.2951 6.88 79.8251 7.09 80.2451 7.37L79.0151 10.76C78.4751 10.38 77.8451 10.19 77.1251 10.19C75.7051 10.19 74.9951 10.97 74.9951 12.53V13.22ZM88.9416 29.24C87.2416 29.24 85.7116 28.89 84.3516 28.19C83.0116 27.47 81.9616 26.48 81.2016 25.22C80.4416 23.96 80.0616 22.53 80.0616 20.93C80.0616 19.33 80.4416 17.9 81.2016 16.64C81.9616 15.38 83.0116 14.4 84.3516 13.7C85.7116 12.98 87.2416 12.62 88.9416 12.62C90.6416 12.62 92.1616 12.98 93.5016 13.7C94.8416 14.4 95.8916 15.38 96.6516 16.64C97.4116 17.9 97.7916 19.33 97.7916 20.93C97.7916 22.53 97.4116 23.96 96.6516 25.22C95.8916 26.48 94.8416 27.47 93.5016 28.19C92.1616 28.89 90.6416 29.24 88.9416 29.24ZM88.9416 25.4C90.1416 25.4 91.1216 25 91.8816 24.2C92.6616 23.38 93.0516 22.29 93.0516 20.93C93.0516 19.57 92.6616 18.49 91.8816 17.69C91.1216 16.87 90.1416 16.46 88.9416 16.46C87.7416 16.46 86.7516 16.87 85.9716 17.69C85.1916 18.49 84.8016 19.57 84.8016 20.93C84.8016 22.29 85.1916 23.38 85.9716 24.2C86.7516 25 87.7416 25.4 88.9416 25.4ZM100.92 6.74H105.6V29H100.92V6.74ZM109.943 12.86H114.623V29H109.943V12.86ZM112.283 10.61C111.423 10.61 110.723 10.36 110.183 9.86C109.643 9.36 109.373 8.74 109.373 8C109.373 7.26 109.643 6.64 110.183 6.14C110.723 5.64 111.423 5.39 112.283 5.39C113.143 5.39 113.843 5.63 114.383 6.11C114.923 6.59 115.193 7.19 115.193 7.91C115.193 8.69 114.923 9.34 114.383 9.86C113.843 10.36 113.143 10.61 112.283 10.61ZM126.647 29.24C124.947 29.24 123.417 28.89 122.057 28.19C120.717 27.47 119.667 26.48 118.907 25.22C118.147 23.96 117.767 22.53 117.767 20.93C117.767 19.33 118.147 17.9 118.907 16.64C119.667 15.38 120.717 14.4 122.057 13.7C123.417 12.98 124.947 12.62 126.647 12.62C128.347 12.62 129.867 12.98 131.207 13.7C132.547 14.4 133.597 15.38 134.357 16.64C135.117 17.9 135.497 19.33 135.497 20.93C135.497 22.53 135.117 23.96 134.357 25.22C133.597 26.48 132.547 27.47 131.207 28.19C129.867 28.89 128.347 29.24 126.647 29.24ZM126.647 25.4C127.847 25.4 128.827 25 129.587 24.2C130.367 23.38 130.757 22.29 130.757 20.93C130.757 19.57 130.367 18.49 129.587 17.69C128.827 16.87 127.847 16.46 126.647 16.46C125.447 16.46 124.457 16.87 123.677 17.69C122.897 18.49 122.507 19.57 122.507 20.93C122.507 22.29 122.897 23.38 123.677 24.2C124.457 25 125.447 25.4 126.647 25.4Z" fill="white"/>
<path d="M8 46L154 37V46H8Z" fill="#FCE82F"/>
</svg>
