<svg width="146" height="46" viewBox="0 0 146 46" fill="none" xmlns="http://www.w3.org/2000/svg">
<path d="M18.87 29L14.82 23.15H14.58H10.35V29H5.49V8H14.58C16.44 8 18.05 8.31 19.41 8.93C20.79 9.55 21.85 10.43 22.59 11.57C23.33 12.71 23.7 14.06 23.7 15.62C23.7 17.18 23.32 18.53 22.56 19.67C21.82 20.79 20.76 21.65 19.38 22.25L24.09 29H18.87ZM18.78 15.62C18.78 14.44 18.4 13.54 17.64 12.92C16.88 12.28 15.77 11.96 14.31 11.96H10.35V19.28H14.31C15.77 19.28 16.88 18.96 17.64 18.32C18.4 17.68 18.78 16.78 18.78 15.62ZM43.0305 20.99C43.0305 21.05 43.0005 21.47 42.9405 22.25H30.7305C30.9505 23.25 31.4705 24.04 32.2905 24.62C33.1105 25.2 34.1305 25.49 35.3505 25.49C36.1905 25.49 36.9305 25.37 37.5705 25.13C38.2305 24.87 38.8405 24.47 39.4005 23.93L41.8905 26.63C40.3705 28.37 38.1505 29.24 35.2305 29.24C33.4105 29.24 31.8005 28.89 30.4005 28.19C29.0005 27.47 27.9205 26.48 27.1605 25.22C26.4005 23.96 26.0205 22.53 26.0205 20.93C26.0205 19.35 26.3905 17.93 27.1305 16.67C27.8905 15.39 28.9205 14.4 30.2205 13.7C31.5405 12.98 33.0105 12.62 34.6305 12.62C36.2105 12.62 37.6405 12.96 38.9205 13.64C40.2005 14.32 41.2005 15.3 41.9205 16.58C42.6605 17.84 43.0305 19.31 43.0305 20.99ZM34.6605 16.16C33.6005 16.16 32.7105 16.46 31.9905 17.06C31.2705 17.66 30.8305 18.48 30.6705 19.52H38.6205C38.4605 18.5 38.0205 17.69 37.3005 17.09C36.5805 16.47 35.7005 16.16 34.6605 16.16ZM51.5763 29.24C50.2363 29.24 48.9263 29.08 47.6463 28.76C46.3663 28.42 45.3463 28 44.5863 27.5L46.1463 24.14C46.8663 24.6 47.7363 24.98 48.7563 25.28C49.7763 25.56 50.7763 25.7 51.7563 25.7C53.7363 25.7 54.7263 25.21 54.7263 24.23C54.7263 23.77 54.4563 23.44 53.9163 23.24C53.3763 23.04 52.5463 22.87 51.4263 22.73C50.1063 22.53 49.0163 22.3 48.1563 22.04C47.2963 21.78 46.5463 21.32 45.9063 20.66C45.2863 20 44.9763 19.06 44.9763 17.84C44.9763 16.82 45.2663 15.92 45.8463 15.14C46.4463 14.34 47.3063 13.72 48.4263 13.28C49.5663 12.84 50.9063 12.62 52.4463 12.62C53.5863 12.62 54.7163 12.75 55.8363 13.01C56.9763 13.25 57.9163 13.59 58.6563 14.03L57.0963 17.36C55.6763 16.56 54.1263 16.16 52.4463 16.16C51.4463 16.16 50.6963 16.3 50.1963 16.58C49.6963 16.86 49.4463 17.22 49.4463 17.66C49.4463 18.16 49.7163 18.51 50.2563 18.71C50.7963 18.91 51.6563 19.1 52.8363 19.28C54.1563 19.5 55.2363 19.74 56.0763 20C56.9163 20.24 57.6463 20.69 58.2663 21.35C58.8863 22.01 59.1963 22.93 59.1963 24.11C59.1963 25.11 58.8963 26 58.2963 26.78C57.6963 27.56 56.8163 28.17 55.6563 28.61C54.5163 29.03 53.1563 29.24 51.5763 29.24ZM78.3438 12.86V29H73.9038V27.08C73.2838 27.78 72.5438 28.32 71.6838 28.7C70.8238 29.06 69.8938 29.24 68.8938 29.24C66.7738 29.24 65.0938 28.63 63.8538 27.41C62.6138 26.19 61.9938 24.38 61.9938 21.98V12.86H66.6738V21.29C66.6738 23.89 67.7638 25.19 69.9438 25.19C71.0638 25.19 71.9638 24.83 72.6438 24.11C73.3238 23.37 73.6638 22.28 73.6638 20.84V12.86H78.3438ZM103.35 12.62C105.37 12.62 106.97 13.22 108.15 14.42C109.35 15.6 109.95 17.38 109.95 19.76V29H105.27V20.48C105.27 19.2 105 18.25 104.46 17.63C103.94 16.99 103.19 16.67 102.21 16.67C101.11 16.67 100.24 17.03 99.5995 17.75C98.9595 18.45 98.6395 19.5 98.6395 20.9V29H93.9595V20.48C93.9595 17.94 92.9395 16.67 90.8995 16.67C89.8195 16.67 88.9595 17.03 88.3195 17.75C87.6795 18.45 87.3595 19.5 87.3595 20.9V29H82.6795V12.86H87.1495V14.72C87.7495 14.04 88.4795 13.52 89.3395 13.16C90.2195 12.8 91.1795 12.62 92.2195 12.62C93.3595 12.62 94.3895 12.85 95.3095 13.31C96.2295 13.75 96.9695 14.4 97.5295 15.26C98.1895 14.42 99.0195 13.77 100.02 13.31C101.04 12.85 102.15 12.62 103.35 12.62ZM130.13 20.99C130.13 21.05 130.1 21.47 130.04 22.25H117.83C118.05 23.25 118.57 24.04 119.39 24.62C120.21 25.2 121.23 25.49 122.45 25.49C123.29 25.49 124.03 25.37 124.67 25.13C125.33 24.87 125.94 24.47 126.5 23.93L128.99 26.63C127.47 28.37 125.25 29.24 122.33 29.24C120.51 29.24 118.9 28.89 117.5 28.19C116.1 27.47 115.02 26.48 114.26 25.22C113.5 23.96 113.12 22.53 113.12 20.93C113.12 19.35 113.49 17.93 114.23 16.67C114.99 15.39 116.02 14.4 117.32 13.7C118.64 12.98 120.11 12.62 121.73 12.62C123.31 12.62 124.74 12.96 126.02 13.64C127.3 14.32 128.3 15.3 129.02 16.58C129.76 17.84 130.13 19.31 130.13 20.99ZM121.76 16.16C120.7 16.16 119.81 16.46 119.09 17.06C118.37 17.66 117.93 18.48 117.77 19.52H125.72C125.56 18.5 125.12 17.69 124.4 17.09C123.68 16.47 122.8 16.16 121.76 16.16Z" fill="white"/>
<path d="M0 46L146 37V46H0Z" fill="#FCE82F"/>
</svg>
